<?xml version="1.0" encoding="UTF-8" standalone="no"?>
<!DOCTYPE svg PUBLIC "-//W3C//DTD SVG 1.0//EN" "http://www.w3.org/TR/2001/PR-SVG-20010719/DTD/svg10.dtd">
<svg width="34cm" height="14cm" viewBox="340 47 663 274" xmlns="http://www.w3.org/2000/svg" xmlns:xlink="http://www.w3.org/1999/xlink">
  <g>
    <ellipse style="fill: #ffffff" cx="748.502" cy="202.5" rx="70.5" ry="70.5"/>
    <ellipse style="fill: none; fill-opacity:0; stroke-width: 1.2; stroke: #000000" cx="748.502" cy="202.5" rx="70.5" ry="70.5"/>
    <ellipse style="fill: none; fill-opacity:0; stroke-width: 1.2; stroke: #000000" cx="748.502" cy="202.5" rx="70.5" ry="70.5"/>
  </g>
  <g>
    <rect style="fill: #ffffff" x="919.602" y="85.25" width="83" height="23"/>
    <rect style="fill: none; fill-opacity:0; stroke-width: 1.2; stroke: #000000" x="919.602" y="85.25" width="83" height="23"/>
  </g>
  <g>
    <rect style="fill: #ffffff" x="919.602" y="127.07" width="83" height="23"/>
    <rect style="fill: none; fill-opacity:0; stroke-width: 1.2; stroke: #000000" x="919.602" y="127.07" width="83" height="23"/>
  </g>
  <g>
    <rect style="fill: #ffffff" x="919.602" y="168.89" width="83" height="23"/>
    <rect style="fill: none; fill-opacity:0; stroke-width: 1.2; stroke: #000000" x="919.602" y="168.89" width="83" height="23"/>
  </g>
  <g>
    <rect style="fill: #ffffff" x="919.602" y="210.71" width="83" height="23"/>
    <rect style="fill: none; fill-opacity:0; stroke-width: 1.2; stroke: #000000" x="919.602" y="210.71" width="83" height="23"/>
  </g>
  <g>
    <rect style="fill: #ffffff" x="919.602" y="252.53" width="83" height="23"/>
    <rect style="fill: none; fill-opacity:0; stroke-width: 1.2; stroke: #000000" x="919.602" y="252.53" width="83" height="23"/>
  </g>
  <g>
    <rect style="fill: #ffffff" x="919.602" y="294.35" width="83" height="23"/>
    <rect style="fill: none; fill-opacity:0; stroke-width: 1.2; stroke: #000000" x="919.602" y="294.35" width="83" height="23"/>
  </g>
  <text font-size="12.8" style="fill: #000000;text-anchor:start;font-family:sans-serif;font-style:normal;font-weight:normal" x="751.502" y="157.5">
    <tspan x="751.502" y="157.5">k1</tspan>
  </text>
  <text font-size="12.8" style="fill: #000000;text-anchor:start;font-family:sans-serif;font-style:normal;font-weight:normal" x="725.002" y="191.45">
    <tspan x="725.002" y="191.45">k2</tspan>
  </text>
  <text font-size="12.8" style="fill: #000000;text-anchor:start;font-family:sans-serif;font-style:normal;font-weight:normal" x="760.502" y="212.5">
    <tspan x="760.502" y="212.5">k4</tspan>
  </text>
  <text font-size="12.8" style="fill: #000000;text-anchor:start;font-family:sans-serif;font-style:normal;font-weight:normal" x="786.002" y="193.05">
    <tspan x="786.002" y="193.05">k3</tspan>
  </text>
  <text font-size="12.8" style="fill: #000000;text-anchor:start;font-family:sans-serif;font-style:normal;font-weight:normal" x="730.002" y="231.35">
    <tspan x="730.002" y="231.35">k5</tspan>
  </text>
  <text font-size="12.8" style="fill: #000000;text-anchor:start;font-family:sans-serif;font-style:normal;font-weight:normal" x="757.002" y="251.65">
    <tspan x="757.002" y="251.65">k6</tspan>
  </text>
  <g>
    <line style="fill: none; fill-opacity:0; stroke-width: 1.2; stroke: #000000" x1="765.788" y1="151.486" x2="914.098" y2="98.7085"/>
    <polygon style="fill: #000000" points="918.338,97.1998 913.691,102.038 914.098,98.7085 911.679,96.385 "/>
    <polygon style="fill: none; fill-opacity:0; stroke-width: 1.2; stroke: #000000" points="918.338,97.1998 913.691,102.038 914.098,98.7085 911.679,96.385 "/>
  </g>
  <g>
    <line style="fill: none; fill-opacity:0; stroke-width: 1.2; stroke: #000000" x1="740.14" y1="185.542" x2="913.951" y2="140.049"/>
    <polygon style="fill: #000000" points="918.304,138.91 913.259,143.331 913.951,140.049 911.74,137.527 "/>
    <polygon style="fill: none; fill-opacity:0; stroke-width: 1.2; stroke: #000000" points="918.304,138.91 913.259,143.331 913.951,140.049 911.74,137.527 "/>
  </g>
  <g>
    <line style="fill: none; fill-opacity:0; stroke-width: 1.2; stroke: #000000" x1="800.264" y1="187.644" x2="913.771" y2="180.744"/>
    <polygon style="fill: #000000" points="918.263,180.471 912.456,183.83 913.771,180.744 912.092,177.841 "/>
    <polygon style="fill: none; fill-opacity:0; stroke-width: 1.2; stroke: #000000" points="918.263,180.471 912.456,183.83 913.771,180.744 912.092,177.841 "/>
  </g>
  <g>
    <line style="fill: none; fill-opacity:0; stroke-width: 1.2; stroke: #000000" x1="775.878" y1="206.67" x2="913.794" y2="221.582"/>
    <polygon style="fill: #000000" points="918.268,222.066 911.98,224.403 913.794,221.582 912.625,218.438 "/>
    <polygon style="fill: none; fill-opacity:0; stroke-width: 1.2; stroke: #000000" points="918.268,222.066 911.98,224.403 913.794,221.582 912.625,218.438 "/>
  </g>
  <g>
    <line style="fill: none; fill-opacity:0; stroke-width: 1.2; stroke: #000000" x1="743.504" y1="228.954" x2="913.873" y2="262.889"/>
    <polygon style="fill: #000000" points="918.286,263.768 911.816,265.538 913.873,262.889 912.988,259.654 "/>
    <polygon style="fill: none; fill-opacity:0; stroke-width: 1.2; stroke: #000000" points="918.286,263.768 911.816,265.538 913.873,262.889 912.988,259.654 "/>
  </g>
  <g>
    <line style="fill: none; fill-opacity:0; stroke-width: 1.2; stroke: #000000" x1="770.834" y1="251.658" x2="914.113" y2="303.851"/>
    <polygon style="fill: #000000" points="918.341,305.391 911.677,306.156 914.113,303.851 913.731,300.518 "/>
    <polygon style="fill: none; fill-opacity:0; stroke-width: 1.2; stroke: #000000" points="918.341,305.391 911.677,306.156 914.113,303.851 913.731,300.518 "/>
  </g>
  <g>
    <rect style="fill: #add8e6" x="343.1" y="146.9" width="195.4" height="28.1"/>
    <rect style="fill: none; fill-opacity:0; stroke-width: 1.2; stroke: #000000" x="343.1" y="146.9" width="195.4" height="28.1"/>
  </g>
  <text font-size="12.7998" style="fill: #000000;text-anchor:start;font-family:sans-serif;font-style:normal;font-weight:normal" x="350" y="183.455">
    <tspan x="350" y="183.455"></tspan>
  </text>
  <text font-size="12.7998" style="fill: #000000;text-anchor:start;font-family:sans-serif;font-style:normal;font-weight:normal" x="351" y="165.733">
    <tspan x="351" y="165.733">ppc_heathrow_machine_info</tspan>
  </text>
  <text font-size="12.7998" style="fill: #000000;text-anchor:start;font-family:sans-serif;font-style:normal;font-weight:normal" x="414" y="122">
    <tspan x="414" y="122">TypeInfo</tspan>
  </text>
  <g>
    <rect style="fill: #add8e6" x="343.1" y="195.085" width="195.4" height="28.1"/>
    <rect style="fill: none; fill-opacity:0; stroke-width: 1.2; stroke: #000000" x="343.1" y="195.085" width="195.4" height="28.1"/>
  </g>
  <text font-size="12.7998" style="fill: #000000;text-anchor:start;font-family:sans-serif;font-style:normal;font-weight:normal" x="351" y="231.639">
    <tspan x="351" y="231.639"></tspan>
  </text>
  <text font-size="12.7998" style="fill: #000000;text-anchor:start;font-family:sans-serif;font-style:normal;font-weight:normal" x="375" y="213.918">
    <tspan x="375" y="213.918">core99_machine_info</tspan>
  </text>
  <g>
    <rect style="fill: #add8e6" x="343.1" y="243.27" width="195.4" height="28.1"/>
    <rect style="fill: none; fill-opacity:0; stroke-width: 1.2; stroke: #000000" x="343.1" y="243.27" width="195.4" height="28.1"/>
  </g>
  <text font-size="12.7998" style="fill: #000000;text-anchor:start;font-family:sans-serif;font-style:normal;font-weight:normal" x="353" y="279.824">
    <tspan x="353" y="279.824"></tspan>
  </text>
  <text font-size="12.7998" style="fill: #000000;text-anchor:start;font-family:sans-serif;font-style:normal;font-weight:normal" x="355" y="261.102">
    <tspan x="355" y="261.102">prep_machine_init_typeinfo</tspan>
  </text>
  <text font-size="12.7998" style="fill: #000000;text-anchor:start;font-family:sans-serif;font-style:normal;font-weight:normal" x="932" y="59.2">
    <tspan x="932" y="59.2">TypeImpl</tspan>
  </text>
  <text font-size="12.7998" style="fill: #000000;text-anchor:start;font-family:sans-serif;font-style:normal;font-weight:normal" x="349.5" y="280.2">
    <tspan x="349.5" y="280.2"></tspan>
  </text>
  <g>
    <rect style="fill: #add8e6" x="341.6" y="291.83" width="195.4" height="28.1"/>
    <rect style="fill: none; fill-opacity:0; stroke-width: 1.2; stroke: #000000" x="341.6" y="291.83" width="195.4" height="28.1"/>
  </g>
  <text font-size="12.7998" style="fill: #000000;text-anchor:start;font-family:sans-serif;font-style:normal;font-weight:normal" x="351.5" y="328.385">
    <tspan x="351.5" y="328.385"></tspan>
  </text>
  <text font-size="12.7998" style="fill: #000000;text-anchor:start;font-family:sans-serif;font-style:normal;font-weight:normal" x="423.5" y="308.663">
    <tspan x="423.5" y="308.663">... ...</tspan>
  </text>
</svg>
