<?xml version="1.0" encoding="UTF-8" standalone="no"?>
<!DOCTYPE svg PUBLIC "-//W3C//DTD SVG 1.1//EN"
 "http://www.w3.org/Graphics/SVG/1.1/DTD/svg11.dtd">
<!-- Generated by graphviz version 2.40.1 (20161225.0304)
 -->
<!-- Title: qemu_module Pages: 1 -->
<svg width="502pt" height="264pt"
 viewBox="0.00 0.00 502.00 264.00" xmlns="http://www.w3.org/2000/svg" xmlns:xlink="http://www.w3.org/1999/xlink">
<g id="graph0" class="graph" transform="scale(1 1) rotate(0) translate(4 260)">
<title>qemu_module</title>
<polygon fill="#ffffff" stroke="transparent" points="-4,4 -4,-260 498,-260 498,4 -4,4"/>
<!-- blockinit -->
<g id="node1" class="node">
<title>blockinit</title>
<path fill="#87ceeb" stroke="#87ceeb" d="M12,-219.5C12,-219.5 101,-219.5 101,-219.5 107,-219.5 113,-225.5 113,-231.5 113,-231.5 113,-243.5 113,-243.5 113,-249.5 107,-255.5 101,-255.5 101,-255.5 12,-255.5 12,-255.5 6,-255.5 0,-249.5 0,-243.5 0,-243.5 0,-231.5 0,-231.5 0,-225.5 6,-219.5 12,-219.5"/>
<text text-anchor="middle" x="56.5" y="-235" font-family="Consolas" font-size="10.00" fill="#000000">block_init(func)</text>
</g>
<!-- moduleinit -->
<g id="node5" class="node">
<title>moduleinit</title>
<path fill="#87ceeb" stroke="#87ceeb" d="M97,-146.5C97,-146.5 396,-146.5 396,-146.5 402,-146.5 408,-152.5 408,-158.5 408,-158.5 408,-170.5 408,-170.5 408,-176.5 402,-182.5 396,-182.5 396,-182.5 97,-182.5 97,-182.5 91,-182.5 85,-176.5 85,-170.5 85,-170.5 85,-158.5 85,-158.5 85,-152.5 91,-146.5 97,-146.5"/>
<text text-anchor="middle" x="246.5" y="-162" font-family="Consolas" font-size="10.00" fill="#000000">module_init(func, MODULE_INIT_BLOCK/OPTS/QOM/TRACE)</text>
</g>
<!-- blockinit&#45;&gt;moduleinit -->
<g id="edge1" class="edge">
<title>blockinit&#45;&gt;moduleinit</title>
<path fill="none" stroke="#006400" d="M103.4663,-219.4551C129.6145,-209.4087 162.3511,-196.8309 189.9048,-186.2445"/>
<polygon fill="#006400" stroke="#006400" points="191.3361,-189.4441 199.4155,-182.5904 188.8255,-182.9098 191.3361,-189.4441"/>
</g>
<!-- optsinit -->
<g id="node2" class="node">
<title>optsinit</title>
<path fill="#87ceeb" stroke="#87ceeb" d="M143,-219.5C143,-219.5 226,-219.5 226,-219.5 232,-219.5 238,-225.5 238,-231.5 238,-231.5 238,-243.5 238,-243.5 238,-249.5 232,-255.5 226,-255.5 226,-255.5 143,-255.5 143,-255.5 137,-255.5 131,-249.5 131,-243.5 131,-243.5 131,-231.5 131,-231.5 131,-225.5 137,-219.5 143,-219.5"/>
<text text-anchor="middle" x="184.5" y="-235" font-family="Consolas" font-size="10.00" fill="#000000">opts_init(func)</text>
</g>
<!-- optsinit&#45;&gt;moduleinit -->
<g id="edge2" class="edge">
<title>optsinit&#45;&gt;moduleinit</title>
<path fill="none" stroke="#006400" d="M199.8258,-219.4551C207.2779,-210.6809 216.3698,-199.9759 224.5427,-190.353"/>
<polygon fill="#006400" stroke="#006400" points="227.3298,-192.4781 231.1356,-182.5904 221.9944,-187.9466 227.3298,-192.4781"/>
</g>
<!-- typeinit -->
<g id="node3" class="node">
<title>typeinit</title>
<path fill="#87ceeb" stroke="#87ceeb" d="M268,-219.5C268,-219.5 351,-219.5 351,-219.5 357,-219.5 363,-225.5 363,-231.5 363,-231.5 363,-243.5 363,-243.5 363,-249.5 357,-255.5 351,-255.5 351,-255.5 268,-255.5 268,-255.5 262,-255.5 256,-249.5 256,-243.5 256,-243.5 256,-231.5 256,-231.5 256,-225.5 262,-219.5 268,-219.5"/>
<text text-anchor="middle" x="309.5" y="-235" font-family="Consolas" font-size="10.00" fill="#000000">type_init(func)</text>
</g>
<!-- typeinit&#45;&gt;moduleinit -->
<g id="edge3" class="edge">
<title>typeinit&#45;&gt;moduleinit</title>
<path fill="none" stroke="#006400" d="M293.927,-219.4551C286.3548,-210.6809 277.1162,-199.9759 268.8115,-190.353"/>
<polygon fill="#006400" stroke="#006400" points="271.2955,-187.8742 262.1122,-182.5904 265.9961,-192.4477 271.2955,-187.8742"/>
</g>
<!-- traceinit -->
<g id="node4" class="node">
<title>traceinit</title>
<path fill="#87ceeb" stroke="#87ceeb" d="M393,-219.5C393,-219.5 482,-219.5 482,-219.5 488,-219.5 494,-225.5 494,-231.5 494,-231.5 494,-243.5 494,-243.5 494,-249.5 488,-255.5 482,-255.5 482,-255.5 393,-255.5 393,-255.5 387,-255.5 381,-249.5 381,-243.5 381,-243.5 381,-231.5 381,-231.5 381,-225.5 387,-219.5 393,-219.5"/>
<text text-anchor="middle" x="437.5" y="-235" font-family="Consolas" font-size="10.00" fill="#000000">trace_init(func)</text>
</g>
<!-- traceinit&#45;&gt;moduleinit -->
<g id="edge4" class="edge">
<title>traceinit&#45;&gt;moduleinit</title>
<path fill="none" stroke="#006400" d="M390.2865,-219.4551C364.0007,-209.4087 331.0918,-196.8309 303.393,-186.2445"/>
<polygon fill="#006400" stroke="#006400" points="304.4229,-182.8912 293.8323,-182.5904 301.9238,-189.4299 304.4229,-182.8912"/>
</g>
<!-- initfunc -->
<g id="node6" class="node">
<title>initfunc</title>
<path fill="#87ceeb" stroke="#87ceeb" d="M58,-73.5C58,-73.5 435,-73.5 435,-73.5 441,-73.5 447,-79.5 447,-85.5 447,-85.5 447,-97.5 447,-97.5 447,-103.5 441,-109.5 435,-109.5 435,-109.5 58,-109.5 58,-109.5 52,-109.5 46,-103.5 46,-97.5 46,-97.5 46,-85.5 46,-85.5 46,-79.5 52,-73.5 58,-73.5"/>
<text text-anchor="middle" x="246.5" y="-89" font-family="Consolas" font-size="10.00" fill="#000000">static void __attribute__(constructor) do_qemu_init##func (void)</text>
</g>
<!-- moduleinit&#45;&gt;initfunc -->
<g id="edge5" class="edge">
<title>moduleinit&#45;&gt;initfunc</title>
<path fill="none" stroke="#006400" d="M246.5,-146.4551C246.5,-138.3828 246.5,-128.6764 246.5,-119.6817"/>
<polygon fill="#006400" stroke="#006400" points="250.0001,-119.5903 246.5,-109.5904 243.0001,-119.5904 250.0001,-119.5903"/>
</g>
<!-- registerinit -->
<g id="node7" class="node">
<title>registerinit</title>
<path fill="#87ceeb" stroke="#87ceeb" d="M154,-.5C154,-.5 339,-.5 339,-.5 345,-.5 351,-6.5 351,-12.5 351,-12.5 351,-24.5 351,-24.5 351,-30.5 345,-36.5 339,-36.5 339,-36.5 154,-36.5 154,-36.5 148,-36.5 142,-30.5 142,-24.5 142,-24.5 142,-12.5 142,-12.5 142,-6.5 148,-.5 154,-.5"/>
<text text-anchor="middle" x="246.5" y="-16" font-family="Consolas" font-size="10.00" fill="#000000">register_module_init(func, type)</text>
</g>
<!-- initfunc&#45;&gt;registerinit -->
<g id="edge6" class="edge">
<title>initfunc&#45;&gt;registerinit</title>
<path fill="none" stroke="#006400" d="M246.5,-73.4551C246.5,-65.3828 246.5,-55.6764 246.5,-46.6817"/>
<polygon fill="#006400" stroke="#006400" points="250.0001,-46.5903 246.5,-36.5904 243.0001,-46.5904 250.0001,-46.5903"/>
</g>
</g>
</svg>
