<?xml version="1.0" encoding="UTF-8" standalone="no"?>
<!DOCTYPE svg PUBLIC "-//W3C//DTD SVG 1.1//EN"
 "http://www.w3.org/Graphics/SVG/1.1/DTD/svg11.dtd">
<!-- Generated by graphviz version 2.40.1 (20161225.0304)
 -->
<!-- Title: qemu_module01 Pages: 1 -->
<svg width="839pt" height="191pt"
 viewBox="0.00 0.00 839.00 191.00" xmlns="http://www.w3.org/2000/svg" xmlns:xlink="http://www.w3.org/1999/xlink">
<g id="graph0" class="graph" transform="scale(1 1) rotate(0) translate(4 187)">
<title>qemu_module01</title>
<polygon fill="#ffffff" stroke="transparent" points="-4,4 -4,-187 835,-187 835,4 -4,4"/>
<!-- initfunc1 -->
<g id="node1" class="node">
<title>initfunc1</title>
<path fill="#87ceeb" stroke="#87ceeb" d="M12,-146.5C12,-146.5 245,-146.5 245,-146.5 251,-146.5 257,-152.5 257,-158.5 257,-158.5 257,-170.5 257,-170.5 257,-176.5 251,-182.5 245,-182.5 245,-182.5 12,-182.5 12,-182.5 6,-182.5 0,-176.5 0,-170.5 0,-170.5 0,-158.5 0,-158.5 0,-152.5 6,-146.5 12,-146.5"/>
<text text-anchor="middle" x="128.5" y="-162" font-family="Consolas" font-size="10.00" fill="#000000">do_qemu_init_ppc_heathrow_register_types</text>
</g>
<!-- registerinit -->
<g id="node4" class="node">
<title>registerinit</title>
<path fill="#87ceeb" stroke="#87ceeb" d="M308,-73.5C308,-73.5 493,-73.5 493,-73.5 499,-73.5 505,-79.5 505,-85.5 505,-85.5 505,-97.5 505,-97.5 505,-103.5 499,-109.5 493,-109.5 493,-109.5 308,-109.5 308,-109.5 302,-109.5 296,-103.5 296,-97.5 296,-97.5 296,-85.5 296,-85.5 296,-79.5 302,-73.5 308,-73.5"/>
<text text-anchor="middle" x="400.5" y="-89" font-family="Consolas" font-size="10.00" fill="#000000">register_module_init(func, type)</text>
</g>
<!-- initfunc1&#45;&gt;registerinit -->
<g id="edge1" class="edge">
<title>initfunc1&#45;&gt;registerinit</title>
<path fill="none" stroke="#006400" d="M195.736,-146.4551C234.3951,-136.0796 283.114,-123.0043 323.3307,-112.2109"/>
<polygon fill="#006400" stroke="#006400" points="324.3439,-115.5629 333.0948,-109.5904 322.5294,-108.8022 324.3439,-115.5629"/>
</g>
<!-- initfunc2 -->
<g id="node2" class="node">
<title>initfunc2</title>
<path fill="#87ceeb" stroke="#87ceeb" d="M287,-146.5C287,-146.5 514,-146.5 514,-146.5 520,-146.5 526,-152.5 526,-158.5 526,-158.5 526,-170.5 526,-170.5 526,-176.5 520,-182.5 514,-182.5 514,-182.5 287,-182.5 287,-182.5 281,-182.5 275,-176.5 275,-170.5 275,-170.5 275,-158.5 275,-158.5 275,-152.5 281,-146.5 287,-146.5"/>
<text text-anchor="middle" x="400.5" y="-162" font-family="Consolas" font-size="10.00" fill="#000000">do_qemu_init_mac_machine_register_types</text>
</g>
<!-- initfunc2&#45;&gt;registerinit -->
<g id="edge2" class="edge">
<title>initfunc2&#45;&gt;registerinit</title>
<path fill="none" stroke="#006400" d="M400.5,-146.4551C400.5,-138.3828 400.5,-128.6764 400.5,-119.6817"/>
<polygon fill="#006400" stroke="#006400" points="404.0001,-119.5903 400.5,-109.5904 397.0001,-119.5904 404.0001,-119.5903"/>
</g>
<!-- initfunc3 -->
<g id="node3" class="node">
<title>initfunc3</title>
<path fill="#87ceeb" stroke="#87ceeb" d="M556,-146.5C556,-146.5 819,-146.5 819,-146.5 825,-146.5 831,-152.5 831,-158.5 831,-158.5 831,-170.5 831,-170.5 831,-176.5 825,-182.5 819,-182.5 819,-182.5 556,-182.5 556,-182.5 550,-182.5 544,-176.5 544,-170.5 544,-170.5 544,-158.5 544,-158.5 544,-152.5 550,-146.5 556,-146.5"/>
<text text-anchor="middle" x="687.5" y="-162" font-family="Consolas" font-size="10.00" fill="#000000">do_qemu_init_prep_machine_init_register_types</text>
</g>
<!-- initfunc3&#45;&gt;registerinit -->
<g id="edge3" class="edge">
<title>initfunc3&#45;&gt;registerinit</title>
<path fill="none" stroke="#006400" d="M616.5562,-146.4551C575.5926,-136.0358 523.9245,-122.8937 481.3871,-112.0741"/>
<polygon fill="#006400" stroke="#006400" points="482.1766,-108.6635 471.6224,-109.5904 480.451,-115.4475 482.1766,-108.6635"/>
</g>
<!-- mallocmoduleentry -->
<g id="node5" class="node">
<title>mallocmoduleentry</title>
<path fill="#87ceeb" stroke="#87ceeb" d="M91,-.5C91,-.5 288,-.5 288,-.5 294,-.5 300,-6.5 300,-12.5 300,-12.5 300,-24.5 300,-24.5 300,-30.5 294,-36.5 288,-36.5 288,-36.5 91,-36.5 91,-36.5 85,-36.5 79,-30.5 79,-24.5 79,-24.5 79,-12.5 79,-12.5 79,-6.5 85,-.5 91,-.5"/>
<text text-anchor="middle" x="189.5" y="-16" font-family="Consolas" font-size="10.00" fill="#000000">e = g_malloc0(sizeof(ModuleEntry))</text>
</g>
<!-- registerinit&#45;&gt;mallocmoduleentry -->
<g id="edge4" class="edge">
<title>registerinit&#45;&gt;mallocmoduleentry</title>
<path fill="none" stroke="#006400" d="M348.3427,-73.4551C319.0509,-63.3209 282.314,-50.611 251.55,-39.9675"/>
<polygon fill="#006400" stroke="#006400" points="252.3833,-36.5524 241.7886,-36.5904 250.0946,-43.1676 252.3833,-36.5524"/>
</g>
<!-- entryinit -->
<g id="node6" class="node">
<title>entryinit</title>
<path fill="#87ceeb" stroke="#87ceeb" d="M330.5,-.5C330.5,-.5 360.5,-.5 360.5,-.5 366.5,-.5 372.5,-6.5 372.5,-12.5 372.5,-12.5 372.5,-24.5 372.5,-24.5 372.5,-30.5 366.5,-36.5 360.5,-36.5 360.5,-36.5 330.5,-36.5 330.5,-36.5 324.5,-36.5 318.5,-30.5 318.5,-24.5 318.5,-24.5 318.5,-12.5 318.5,-12.5 318.5,-6.5 324.5,-.5 330.5,-.5"/>
<text text-anchor="middle" x="345.5" y="-16" font-family="Consolas" font-size="10.00" fill="#000000">init e</text>
</g>
<!-- registerinit&#45;&gt;entryinit -->
<g id="edge5" class="edge">
<title>registerinit&#45;&gt;entryinit</title>
<path fill="none" stroke="#006400" d="M386.9045,-73.4551C380.3599,-64.7686 372.3896,-54.1898 365.196,-44.642"/>
<polygon fill="#006400" stroke="#006400" points="367.9427,-42.4711 359.1297,-36.5904 362.3518,-46.6834 367.9427,-42.4711"/>
</g>
<!-- find_type -->
<g id="node7" class="node">
<title>find_type</title>
<path fill="#87ceeb" stroke="#87ceeb" d="M403,-.5C403,-.5 510,-.5 510,-.5 516,-.5 522,-6.5 522,-12.5 522,-12.5 522,-24.5 522,-24.5 522,-30.5 516,-36.5 510,-36.5 510,-36.5 403,-36.5 403,-36.5 397,-36.5 391,-30.5 391,-24.5 391,-24.5 391,-12.5 391,-12.5 391,-6.5 397,-.5 403,-.5"/>
<text text-anchor="middle" x="456.5" y="-16" font-family="Consolas" font-size="10.00" fill="#000000">l = find_type(type)</text>
</g>
<!-- registerinit&#45;&gt;find_type -->
<g id="edge6" class="edge">
<title>registerinit&#45;&gt;find_type</title>
<path fill="none" stroke="#006400" d="M414.3427,-73.4551C421.0062,-64.7686 429.1215,-54.1898 436.4459,-44.642"/>
<polygon fill="#006400" stroke="#006400" points="439.3128,-46.655 442.6225,-36.5904 433.7588,-42.3944 439.3128,-46.655"/>
</g>
<!-- insertentry -->
<g id="node8" class="node">
<title>insertentry</title>
<path fill="#87ceeb" stroke="#87ceeb" d="M552,-.5C552,-.5 725,-.5 725,-.5 731,-.5 737,-6.5 737,-12.5 737,-12.5 737,-24.5 737,-24.5 737,-30.5 731,-36.5 725,-36.5 725,-36.5 552,-36.5 552,-36.5 546,-36.5 540,-30.5 540,-24.5 540,-24.5 540,-12.5 540,-12.5 540,-6.5 546,-.5 552,-.5"/>
<text text-anchor="middle" x="638.5" y="-16" font-family="Consolas" font-size="10.00" fill="#000000">QTAILQ_INSERT_TAIL(l, e, node)</text>
</g>
<!-- registerinit&#45;&gt;insertentry -->
<g id="edge7" class="edge">
<title>registerinit&#45;&gt;insertentry</title>
<path fill="none" stroke="#006400" d="M459.3315,-73.4551C492.8006,-63.1893 534.887,-50.2804 569.8585,-39.5539"/>
<polygon fill="#006400" stroke="#006400" points="570.9864,-42.869 579.5205,-36.5904 568.9337,-36.1767 570.9864,-42.869"/>
</g>
</g>
</svg>
