<?xml version="1.0" encoding="UTF-8" standalone="no"?>
<!DOCTYPE svg PUBLIC "-//W3C//DTD SVG 1.0//EN" "http://www.w3.org/TR/2001/PR-SVG-20010719/DTD/svg10.dtd">
<svg width="39cm" height="12cm" viewBox="342 55 763 231" xmlns="http://www.w3.org/2000/svg" xmlns:xlink="http://www.w3.org/1999/xlink">
  <text font-size="12.8" style="fill: #000000;text-anchor:start;font-family:sans-serif;font-style:normal;font-weight:normal" x="342" y="156">
    <tspan x="342" y="156">init_type_list[4]</tspan>
  </text>
  <text font-size="12.8" style="fill: #000000;text-anchor:start;font-family:sans-serif;font-style:normal;font-weight:normal" x="462" y="82.4338">
    <tspan x="462" y="82.4338">BLOCK</tspan>
  </text>
  <text font-size="12.8" style="fill: #000000;text-anchor:start;font-family:sans-serif;font-style:normal;font-weight:normal" x="462" y="131.1">
    <tspan x="462" y="131.1">OPTS</tspan>
  </text>
  <text font-size="12.8" style="fill: #000000;text-anchor:start;font-family:sans-serif;font-style:normal;font-weight:normal" x="462" y="179.767">
    <tspan x="462" y="179.767">QOM</tspan>
  </text>
  <text font-size="12.8" style="fill: #000000;text-anchor:start;font-family:sans-serif;font-style:normal;font-weight:normal" x="462" y="228.434">
    <tspan x="462" y="228.434">TRACE</tspan>
  </text>
  <g>
    <rect style="fill: #8b6914" x="508" y="56" width="68" height="48"/>
    <rect style="fill: none; fill-opacity:0; stroke-width: 0.8; stroke: #000000" x="508" y="56" width="68" height="48"/>
  </g>
  <g>
    <rect style="fill: #ffc0cb" x="508" y="104" width="68" height="48"/>
    <rect style="fill: none; fill-opacity:0; stroke-width: 0.8; stroke: #000000" x="508" y="104" width="68" height="48"/>
  </g>
  <g>
    <rect style="fill: #90ee90" x="508" y="152" width="68" height="48"/>
    <rect style="fill: none; fill-opacity:0; stroke-width: 0.8; stroke: #000000" x="508" y="152" width="68" height="48"/>
  </g>
  <g>
    <rect style="fill: #add8e6" x="508" y="200" width="68" height="48"/>
    <rect style="fill: none; fill-opacity:0; stroke-width: 0.8; stroke: #000000" x="508" y="200" width="68" height="48"/>
  </g>
  <g>
    <rect style="fill: #ffffff" x="512" y="152" width="60" height="24"/>
    <rect style="fill: none; fill-opacity:0; stroke-width: 0.8; stroke: #000000" x="512" y="152" width="60" height="24"/>
  </g>
  <g>
    <rect style="fill: #ffffff" x="512" y="176" width="60" height="24"/>
    <rect style="fill: none; fill-opacity:0; stroke-width: 0.8; stroke: #000000" x="512" y="176" width="60" height="24"/>
  </g>
  <text font-size="12.8" style="fill: #000000;text-anchor:start;font-family:sans-serif;font-style:normal;font-weight:normal" x="516" y="168">
    <tspan x="516" y="168">tqh_first</tspan>
  </text>
  <text font-size="12.8" style="fill: #000000;text-anchor:start;font-family:sans-serif;font-style:normal;font-weight:normal" x="516" y="192">
    <tspan x="516" y="192">tqh_last</tspan>
  </text>
  <g>
    <rect style="fill: #90ee90" x="612" y="152" width="68" height="48"/>
    <rect style="fill: none; fill-opacity:0; stroke-width: 0.8; stroke: #000000" x="612" y="152" width="68" height="48"/>
  </g>
  <g>
    <rect style="fill: #ffffff" x="616" y="152" width="60" height="24"/>
    <rect style="fill: none; fill-opacity:0; stroke-width: 0.8; stroke: #000000" x="616" y="152" width="60" height="24"/>
  </g>
  <g>
    <rect style="fill: #ffffff" x="616" y="176" width="60" height="24"/>
    <rect style="fill: none; fill-opacity:0; stroke-width: 0.8; stroke: #000000" x="616" y="176" width="60" height="24"/>
  </g>
  <text font-size="12.8" style="fill: #000000;text-anchor:start;font-family:sans-serif;font-style:normal;font-weight:normal" x="618.072" y="168">
    <tspan x="618.072" y="168">tqe_next</tspan>
  </text>
  <text font-size="12.8" style="fill: #000000;text-anchor:start;font-family:sans-serif;font-style:normal;font-weight:normal" x="618.072" y="192">
    <tspan x="618.072" y="192">tqe_prev</tspan>
  </text>
  <g>
    <rect style="fill: #90ee90" x="612" y="200" width="68" height="24"/>
    <rect style="fill: none; fill-opacity:0; stroke-width: 0.8; stroke: #000000" x="612" y="200" width="68" height="24"/>
  </g>
  <text font-size="12.8" style="fill: #000000;text-anchor:start;font-family:sans-serif;font-style:normal;font-weight:normal" x="632" y="216">
    <tspan x="632" y="216">type</tspan>
  </text>
  <g>
    <rect style="fill: #90ee90" x="612" y="128" width="68" height="24"/>
    <rect style="fill: none; fill-opacity:0; stroke-width: 0.8; stroke: #000000" x="612" y="128" width="68" height="24"/>
  </g>
  <text font-size="12.8" style="fill: #000000;text-anchor:start;font-family:sans-serif;font-style:normal;font-weight:normal" x="632" y="144">
    <tspan x="632" y="144">func</tspan>
  </text>
  <g>
    <path style="fill: none; fill-opacity:0; stroke-width: 1.2; stroke: #ffa500" d="M 572 164 C 600,164 584,152 606.158,152"/>
    <polygon style="fill: #ffa500" points="610.658,152 604.658,155 606.158,152 604.658,149 "/>
    <polygon style="fill: none; fill-opacity:0; stroke-width: 1.2; stroke: #ffa500" points="610.658,152 604.658,155 606.158,152 604.658,149 "/>
  </g>
  <g>
    <rect style="fill: #90ee90" x="716" y="152" width="68" height="48"/>
    <rect style="fill: none; fill-opacity:0; stroke-width: 0.8; stroke: #000000" x="716" y="152" width="68" height="48"/>
  </g>
  <g>
    <rect style="fill: #ffffff" x="720" y="152" width="60" height="24"/>
    <rect style="fill: none; fill-opacity:0; stroke-width: 0.8; stroke: #000000" x="720" y="152" width="60" height="24"/>
  </g>
  <g>
    <rect style="fill: #ffffff" x="720" y="176" width="60" height="24"/>
    <rect style="fill: none; fill-opacity:0; stroke-width: 0.8; stroke: #000000" x="720" y="176" width="60" height="24"/>
  </g>
  <text font-size="12.8" style="fill: #000000;text-anchor:start;font-family:sans-serif;font-style:normal;font-weight:normal" x="722.072" y="168">
    <tspan x="722.072" y="168">tqe_next</tspan>
  </text>
  <text font-size="12.8" style="fill: #000000;text-anchor:start;font-family:sans-serif;font-style:normal;font-weight:normal" x="722.072" y="192">
    <tspan x="722.072" y="192">tqe_prev</tspan>
  </text>
  <g>
    <rect style="fill: #90ee90" x="716" y="200" width="68" height="24"/>
    <rect style="fill: none; fill-opacity:0; stroke-width: 0.8; stroke: #000000" x="716" y="200" width="68" height="24"/>
  </g>
  <text font-size="12.8" style="fill: #000000;text-anchor:start;font-family:sans-serif;font-style:normal;font-weight:normal" x="736" y="216">
    <tspan x="736" y="216">type</tspan>
  </text>
  <g>
    <rect style="fill: #90ee90" x="716" y="128" width="68" height="24"/>
    <rect style="fill: none; fill-opacity:0; stroke-width: 0.8; stroke: #000000" x="716" y="128" width="68" height="24"/>
  </g>
  <text font-size="12.8" style="fill: #000000;text-anchor:start;font-family:sans-serif;font-style:normal;font-weight:normal" x="736" y="144">
    <tspan x="736" y="144">func</tspan>
  </text>
  <g>
    <path style="fill: none; fill-opacity:0; stroke-width: 1.2; stroke: #ffa500" d="M 676 164 C 704,164 688,152 710.158,152"/>
    <polygon style="fill: #ffa500" points="714.658,152 708.658,155 710.158,152 708.658,149 "/>
    <polygon style="fill: none; fill-opacity:0; stroke-width: 1.2; stroke: #ffa500" points="714.658,152 708.658,155 710.158,152 708.658,149 "/>
  </g>
  <g>
    <rect style="fill: #90ee90" x="888.098" y="152" width="68" height="48"/>
    <rect style="fill: none; fill-opacity:0; stroke-width: 0.8; stroke: #000000" x="888.098" y="152" width="68" height="48"/>
  </g>
  <g>
    <rect style="fill: #ffffff" x="892.098" y="152" width="60" height="24"/>
    <rect style="fill: none; fill-opacity:0; stroke-width: 0.8; stroke: #000000" x="892.098" y="152" width="60" height="24"/>
  </g>
  <g>
    <rect style="fill: #ffffff" x="892.098" y="176" width="60" height="24"/>
    <rect style="fill: none; fill-opacity:0; stroke-width: 0.8; stroke: #000000" x="892.098" y="176" width="60" height="24"/>
  </g>
  <text font-size="12.8" style="fill: #000000;text-anchor:start;font-family:sans-serif;font-style:normal;font-weight:normal" x="894.17" y="168">
    <tspan x="894.17" y="168">tqe_next</tspan>
  </text>
  <text font-size="12.8" style="fill: #000000;text-anchor:start;font-family:sans-serif;font-style:normal;font-weight:normal" x="894.17" y="192">
    <tspan x="894.17" y="192">tqe_prev</tspan>
  </text>
  <g>
    <rect style="fill: #90ee90" x="888.098" y="200" width="68" height="24"/>
    <rect style="fill: none; fill-opacity:0; stroke-width: 0.8; stroke: #000000" x="888.098" y="200" width="68" height="24"/>
  </g>
  <text font-size="12.8" style="fill: #000000;text-anchor:start;font-family:sans-serif;font-style:normal;font-weight:normal" x="908.098" y="216">
    <tspan x="908.098" y="216">type</tspan>
  </text>
  <g>
    <rect style="fill: #90ee90" x="888.098" y="128" width="68" height="24"/>
    <rect style="fill: none; fill-opacity:0; stroke-width: 0.8; stroke: #000000" x="888.098" y="128" width="68" height="24"/>
  </g>
  <text font-size="12.8" style="fill: #000000;text-anchor:start;font-family:sans-serif;font-style:normal;font-weight:normal" x="908.098" y="144">
    <tspan x="908.098" y="144">func</tspan>
  </text>
  <g>
    <path style="fill: none; fill-opacity:0; stroke-width: 1.2; stroke: #ffa500" d="M 848.098 164 C 876.098,164 860.098,152 882.256,152"/>
    <polygon style="fill: #ffa500" points="886.756,152 880.756,155 882.256,152 880.756,149 "/>
    <polygon style="fill: none; fill-opacity:0; stroke-width: 1.2; stroke: #ffa500" points="886.756,152 880.756,155 882.256,152 880.756,149 "/>
  </g>
  <g>
    <rect style="fill: #90ee90" x="992.098" y="152" width="68" height="48"/>
    <rect style="fill: none; fill-opacity:0; stroke-width: 0.8; stroke: #000000" x="992.098" y="152" width="68" height="48"/>
  </g>
  <g>
    <rect style="fill: #ffffff" x="996.098" y="152" width="60" height="24"/>
    <rect style="fill: none; fill-opacity:0; stroke-width: 0.8; stroke: #000000" x="996.098" y="152" width="60" height="24"/>
  </g>
  <g>
    <rect style="fill: #ffffff" x="996.098" y="176" width="60" height="24"/>
    <rect style="fill: none; fill-opacity:0; stroke-width: 0.8; stroke: #000000" x="996.098" y="176" width="60" height="24"/>
  </g>
  <text font-size="12.8" style="fill: #000000;text-anchor:start;font-family:sans-serif;font-style:normal;font-weight:normal" x="998.17" y="168">
    <tspan x="998.17" y="168">tqe_next</tspan>
  </text>
  <text font-size="12.8" style="fill: #000000;text-anchor:start;font-family:sans-serif;font-style:normal;font-weight:normal" x="998.17" y="192">
    <tspan x="998.17" y="192">tqe_prev</tspan>
  </text>
  <g>
    <rect style="fill: #90ee90" x="992.098" y="200" width="68" height="24"/>
    <rect style="fill: none; fill-opacity:0; stroke-width: 0.8; stroke: #000000" x="992.098" y="200" width="68" height="24"/>
  </g>
  <text font-size="12.8" style="fill: #000000;text-anchor:start;font-family:sans-serif;font-style:normal;font-weight:normal" x="1012.1" y="216">
    <tspan x="1012.1" y="216">type</tspan>
  </text>
  <g>
    <rect style="fill: #90ee90" x="992.098" y="128" width="68" height="24"/>
    <rect style="fill: none; fill-opacity:0; stroke-width: 0.8; stroke: #000000" x="992.098" y="128" width="68" height="24"/>
  </g>
  <text font-size="12.8" style="fill: #000000;text-anchor:start;font-family:sans-serif;font-style:normal;font-weight:normal" x="1012.1" y="144">
    <tspan x="1012.1" y="144">func</tspan>
  </text>
  <g>
    <path style="fill: none; fill-opacity:0; stroke-width: 1.2; stroke: #ffa500" d="M 952.098 164 C 980.098,164 964.098,152 986.256,152"/>
    <polygon style="fill: #ffa500" points="990.756,152 984.756,155 986.256,152 984.756,149 "/>
    <polygon style="fill: none; fill-opacity:0; stroke-width: 1.2; stroke: #ffa500" points="990.756,152 984.756,155 986.256,152 984.756,149 "/>
  </g>
  <g>
    <path style="fill: none; fill-opacity:0; stroke-width: 1.2; stroke: #ffa500" d="M 780 164 C 808,164 792,152 814.158,152"/>
    <polygon style="fill: #ffa500" points="818.658,152 812.658,155 814.158,152 812.658,149 "/>
    <polygon style="fill: none; fill-opacity:0; stroke-width: 1.2; stroke: #ffa500" points="818.658,152 812.658,155 814.158,152 812.658,149 "/>
  </g>
  <g>
    <path style="fill: none; fill-opacity:0; stroke-width: 1.2; stroke: #ffa500" d="M 1056.1 164 C 1084.1,164 1065.36,151.823 1087.52,151.823"/>
    <polygon style="fill: #ffa500" points="1092.02,151.823 1086.02,154.823 1087.52,151.823 1086.02,148.823 "/>
    <polygon style="fill: none; fill-opacity:0; stroke-width: 1.2; stroke: #ffa500" points="1092.02,151.823 1086.02,154.823 1087.52,151.823 1086.02,148.823 "/>
  </g>
  <g>
    <path style="fill: none; fill-opacity:0; stroke-width: 1.2; stroke: #1e90ff" d="M 616 188 C 592,184 596,160 577.542,153.847"/>
    <polygon style="fill: #1e90ff" points="573.273,152.424 579.914,151.476 577.542,153.847 578.016,157.168 "/>
    <polygon style="fill: none; fill-opacity:0; stroke-width: 1.2; stroke: #1e90ff" points="573.273,152.424 579.914,151.476 577.542,153.847 578.016,157.168 "/>
  </g>
  <g>
    <path style="fill: none; fill-opacity:0; stroke-width: 1.2; stroke: #1e90ff" d="M 720 188 C 696,184 700,160 681.542,153.847"/>
    <polygon style="fill: #1e90ff" points="677.273,152.424 683.914,151.476 681.542,153.847 682.016,157.168 "/>
    <polygon style="fill: none; fill-opacity:0; stroke-width: 1.2; stroke: #1e90ff" points="677.273,152.424 683.914,151.476 681.542,153.847 682.016,157.168 "/>
  </g>
  <g>
    <path style="fill: none; fill-opacity:0; stroke-width: 1.2; stroke: #1e90ff" d="M 824 188 C 800,184 804,160 785.542,153.847"/>
    <polygon style="fill: #1e90ff" points="781.273,152.424 787.914,151.476 785.542,153.847 786.016,157.168 "/>
    <polygon style="fill: none; fill-opacity:0; stroke-width: 1.2; stroke: #1e90ff" points="781.273,152.424 787.914,151.476 785.542,153.847 786.016,157.168 "/>
  </g>
  <g>
    <path style="fill: none; fill-opacity:0; stroke-width: 1.2; stroke: #1e90ff" d="M 996.098 188 C 972.098,184 976.098,160 957.64,153.847"/>
    <polygon style="fill: #1e90ff" points="953.371,152.424 960.012,151.476 957.64,153.847 958.114,157.168 "/>
    <polygon style="fill: none; fill-opacity:0; stroke-width: 1.2; stroke: #1e90ff" points="953.371,152.424 960.012,151.476 957.64,153.847 958.114,157.168 "/>
  </g>
  <g>
    <path style="fill: none; fill-opacity:0; stroke-width: 1.2; stroke: #1e90ff" d="M 892.098 188 C 868.098,184 872,160 853.542,153.847"/>
    <polygon style="fill: #1e90ff" points="849.273,152.424 855.914,151.476 853.542,153.847 854.016,157.168 "/>
    <polygon style="fill: none; fill-opacity:0; stroke-width: 1.2; stroke: #1e90ff" points="849.273,152.424 855.914,151.476 853.542,153.847 854.016,157.168 "/>
  </g>
  <g>
    <path style="fill: none; fill-opacity:0; stroke-width: 1.2; stroke: #ffc0cb" d="M 572 188 C 660,344 1196,296 1060.17,156.19"/>
    <polygon style="fill: #ffc0cb" points="1057.03,152.962 1063.37,155.175 1060.17,156.19 1059.06,159.356 "/>
    <polygon style="fill: none; fill-opacity:0; stroke-width: 1.2; stroke: #ffc0cb" points="1057.03,152.962 1063.37,155.175 1060.17,156.19 1059.06,159.356 "/>
  </g>
  <text font-size="12.8" style="fill: #000000;text-anchor:start;font-family:sans-serif;font-style:normal;font-weight:normal" x="829.206" y="162.217">
    <tspan x="829.206" y="162.217">...</tspan>
  </text>
  <g>
    <ellipse style="fill: #ffffff" cx="1098.98" cy="151.823" rx="5.61663" ry="5.61663"/>
    <ellipse style="fill: none; fill-opacity:0; stroke-width: 0.8; stroke: #000000" cx="1098.98" cy="151.823" rx="5.61663" ry="5.61663"/>
    <ellipse style="fill: none; fill-opacity:0; stroke-width: 0.08; stroke: #000000" cx="1098.98" cy="151.823" rx="5.61663" ry="5.61663"/>
    <ellipse style="fill: #ffffff" cx="1098.98" cy="151.823" rx="4.81425" ry="4.81425"/>
    <ellipse style="fill: none; fill-opacity:0; stroke-width: 0.8; stroke: #000000" cx="1098.98" cy="151.823" rx="4.81425" ry="4.81425"/>
    <ellipse style="fill: none; fill-opacity:0; stroke-width: 0.08; stroke: #000000" cx="1098.98" cy="151.823" rx="4.81425" ry="4.81425"/>
    <polygon style="fill: #000000" points="1095.77,149.416 1098.17,151.823 1095.77,154.23 1096.57,155.033 1098.98,152.625 1101.38,155.033 1102.19,154.23 1099.78,151.823 1102.19,149.416 1101.38,148.614 1098.98,151.021 1096.57,148.614 "/>
    <polygon style="fill: none; fill-opacity:0; stroke-width: 0.8; stroke: #000000" points="1095.77,149.416 1098.17,151.823 1095.77,154.23 1096.57,155.033 1098.98,152.625 1101.38,155.033 1102.19,154.23 1099.78,151.823 1102.19,149.416 1101.38,148.614 1098.98,151.021 1096.57,148.614 "/>
    <polygon style="fill: none; fill-opacity:0; stroke-width: 0.08; stroke: #000000" points="1095.77,149.416 1098.17,151.823 1095.77,154.23 1096.57,155.033 1098.98,152.625 1101.38,155.033 1102.19,154.23 1099.78,151.823 1102.19,149.416 1101.38,148.614 1098.98,151.021 1096.57,148.614 "/>
  </g>
</svg>
