<?xml version="1.0" encoding="UTF-8" standalone="no"?>
<!DOCTYPE svg PUBLIC "-//W3C//DTD SVG 1.1//EN"
 "http://www.w3.org/Graphics/SVG/1.1/DTD/svg11.dtd">
<!-- Generated by graphviz version 2.40.1 (20161225.0304)
 -->
<!-- Title: qemu_module01 Pages: 1 -->
<svg width="502pt" height="191pt"
 viewBox="0.00 0.00 502.00 191.00" xmlns="http://www.w3.org/2000/svg" xmlns:xlink="http://www.w3.org/1999/xlink">
<g id="graph0" class="graph" transform="scale(1 1) rotate(0) translate(4 187)">
<title>qemu_module01</title>
<polygon fill="#ffffff" stroke="transparent" points="-4,4 -4,-187 498,-187 498,4 -4,4"/>
<!-- blockinit -->
<g id="node1" class="node">
<title>blockinit</title>
<path fill="#87ceeb" stroke="#87ceeb" d="M12,-146.5C12,-146.5 101,-146.5 101,-146.5 107,-146.5 113,-152.5 113,-158.5 113,-158.5 113,-170.5 113,-170.5 113,-176.5 107,-182.5 101,-182.5 101,-182.5 12,-182.5 12,-182.5 6,-182.5 0,-176.5 0,-170.5 0,-170.5 0,-158.5 0,-158.5 0,-152.5 6,-146.5 12,-146.5"/>
<text text-anchor="middle" x="56.5" y="-162" font-family="Consolas" font-size="10.00" fill="#000000">block_init(func)</text>
</g>
<!-- moduleinit -->
<g id="node5" class="node">
<title>moduleinit</title>
<path fill="#87ceeb" stroke="#87ceeb" d="M97,-73.5C97,-73.5 396,-73.5 396,-73.5 402,-73.5 408,-79.5 408,-85.5 408,-85.5 408,-97.5 408,-97.5 408,-103.5 402,-109.5 396,-109.5 396,-109.5 97,-109.5 97,-109.5 91,-109.5 85,-103.5 85,-97.5 85,-97.5 85,-85.5 85,-85.5 85,-79.5 91,-73.5 97,-73.5"/>
<text text-anchor="middle" x="246.5" y="-89" font-family="Consolas" font-size="10.00" fill="#000000">module_init(func, MODULE_INIT_BLOCK/OPTS/QOM/TRACE)</text>
</g>
<!-- blockinit&#45;&gt;moduleinit -->
<g id="edge1" class="edge">
<title>blockinit&#45;&gt;moduleinit</title>
<path fill="none" stroke="#006400" d="M103.4663,-146.4551C129.6145,-136.4087 162.3511,-123.8309 189.9048,-113.2445"/>
<polygon fill="#006400" stroke="#006400" points="191.3361,-116.4441 199.4155,-109.5904 188.8255,-109.9098 191.3361,-116.4441"/>
</g>
<!-- optsinit -->
<g id="node2" class="node">
<title>optsinit</title>
<path fill="#87ceeb" stroke="#87ceeb" d="M143,-146.5C143,-146.5 226,-146.5 226,-146.5 232,-146.5 238,-152.5 238,-158.5 238,-158.5 238,-170.5 238,-170.5 238,-176.5 232,-182.5 226,-182.5 226,-182.5 143,-182.5 143,-182.5 137,-182.5 131,-176.5 131,-170.5 131,-170.5 131,-158.5 131,-158.5 131,-152.5 137,-146.5 143,-146.5"/>
<text text-anchor="middle" x="184.5" y="-162" font-family="Consolas" font-size="10.00" fill="#000000">opts_init(func)</text>
</g>
<!-- optsinit&#45;&gt;moduleinit -->
<g id="edge2" class="edge">
<title>optsinit&#45;&gt;moduleinit</title>
<path fill="none" stroke="#006400" d="M199.8258,-146.4551C207.2779,-137.6809 216.3698,-126.9759 224.5427,-117.353"/>
<polygon fill="#006400" stroke="#006400" points="227.3298,-119.4781 231.1356,-109.5904 221.9944,-114.9466 227.3298,-119.4781"/>
</g>
<!-- typeinit -->
<g id="node3" class="node">
<title>typeinit</title>
<path fill="#87ceeb" stroke="#87ceeb" d="M268,-146.5C268,-146.5 351,-146.5 351,-146.5 357,-146.5 363,-152.5 363,-158.5 363,-158.5 363,-170.5 363,-170.5 363,-176.5 357,-182.5 351,-182.5 351,-182.5 268,-182.5 268,-182.5 262,-182.5 256,-176.5 256,-170.5 256,-170.5 256,-158.5 256,-158.5 256,-152.5 262,-146.5 268,-146.5"/>
<text text-anchor="middle" x="309.5" y="-162" font-family="Consolas" font-size="10.00" fill="#000000">type_init(func)</text>
</g>
<!-- typeinit&#45;&gt;moduleinit -->
<g id="edge3" class="edge">
<title>typeinit&#45;&gt;moduleinit</title>
<path fill="none" stroke="#006400" d="M293.927,-146.4551C286.3548,-137.6809 277.1162,-126.9759 268.8115,-117.353"/>
<polygon fill="#006400" stroke="#006400" points="271.2955,-114.8742 262.1122,-109.5904 265.9961,-119.4477 271.2955,-114.8742"/>
</g>
<!-- traceinit -->
<g id="node4" class="node">
<title>traceinit</title>
<path fill="#87ceeb" stroke="#87ceeb" d="M393,-146.5C393,-146.5 482,-146.5 482,-146.5 488,-146.5 494,-152.5 494,-158.5 494,-158.5 494,-170.5 494,-170.5 494,-176.5 488,-182.5 482,-182.5 482,-182.5 393,-182.5 393,-182.5 387,-182.5 381,-176.5 381,-170.5 381,-170.5 381,-158.5 381,-158.5 381,-152.5 387,-146.5 393,-146.5"/>
<text text-anchor="middle" x="437.5" y="-162" font-family="Consolas" font-size="10.00" fill="#000000">trace_init(func)</text>
</g>
<!-- traceinit&#45;&gt;moduleinit -->
<g id="edge4" class="edge">
<title>traceinit&#45;&gt;moduleinit</title>
<path fill="none" stroke="#006400" d="M390.2865,-146.4551C364.0007,-136.4087 331.0918,-123.8309 303.393,-113.2445"/>
<polygon fill="#006400" stroke="#006400" points="304.4229,-109.8912 293.8323,-109.5904 301.9238,-116.4299 304.4229,-109.8912"/>
</g>
<!-- initfunc -->
<g id="node6" class="node">
<title>initfunc</title>
<path fill="#87ceeb" stroke="#87ceeb" d="M55,-.5C55,-.5 438,-.5 438,-.5 444,-.5 450,-6.5 450,-12.5 450,-12.5 450,-24.5 450,-24.5 450,-30.5 444,-36.5 438,-36.5 438,-36.5 55,-36.5 55,-36.5 49,-36.5 43,-30.5 43,-24.5 43,-24.5 43,-12.5 43,-12.5 43,-6.5 49,-.5 55,-.5"/>
<text text-anchor="middle" x="246.5" y="-16" font-family="Consolas" font-size="10.00" fill="#000000">static void __attribute__(constructor) do_qemu_init_##func (void)</text>
</g>
<!-- moduleinit&#45;&gt;initfunc -->
<g id="edge5" class="edge">
<title>moduleinit&#45;&gt;initfunc</title>
<path fill="none" stroke="#006400" d="M246.5,-73.4551C246.5,-65.3828 246.5,-55.6764 246.5,-46.6817"/>
<polygon fill="#006400" stroke="#006400" points="250.0001,-46.5903 246.5,-36.5904 243.0001,-46.5904 250.0001,-46.5903"/>
</g>
</g>
</svg>
