<?xml version="1.0" encoding="UTF-8" standalone="no"?>
<!DOCTYPE svg PUBLIC "-//W3C//DTD SVG 1.1//EN"
 "http://www.w3.org/Graphics/SVG/1.1/DTD/svg11.dtd">
<!-- Generated by graphviz version 2.40.1 (20161225.0304)
 -->
<!-- Title: qemu_module03 Pages: 1 -->
<svg width="641pt" height="483pt"
 viewBox="0.00 0.00 641.00 483.00" xmlns="http://www.w3.org/2000/svg" xmlns:xlink="http://www.w3.org/1999/xlink">
<g id="graph0" class="graph" transform="scale(1 1) rotate(0) translate(4 479)">
<title>qemu_module03</title>
<polygon fill="#ffffff" stroke="transparent" points="-4,4 -4,-479 637,-479 637,4 -4,4"/>
<!-- moduleinit -->
<g id="node1" class="node">
<title>moduleinit</title>
<path fill="#87ceeb" stroke="#87ceeb" d="M149,-438.5C149,-438.5 268,-438.5 268,-438.5 274,-438.5 280,-444.5 280,-450.5 280,-450.5 280,-462.5 280,-462.5 280,-468.5 274,-474.5 268,-474.5 268,-474.5 149,-474.5 149,-474.5 143,-474.5 137,-468.5 137,-462.5 137,-462.5 137,-450.5 137,-450.5 137,-444.5 143,-438.5 149,-438.5"/>
<text text-anchor="middle" x="208.5" y="-454" font-family="Consolas" font-size="10.00" fill="#000000">module_call_init(QOM)</text>
</g>
<!-- moduleft -->
<g id="node2" class="node">
<title>moduleft</title>
<path fill="#87ceeb" stroke="#87ceeb" d="M60,-365.5C60,-365.5 173,-365.5 173,-365.5 179,-365.5 185,-371.5 185,-377.5 185,-377.5 185,-389.5 185,-389.5 185,-395.5 179,-401.5 173,-401.5 173,-401.5 60,-401.5 60,-401.5 54,-401.5 48,-395.5 48,-389.5 48,-389.5 48,-377.5 48,-377.5 48,-371.5 54,-365.5 60,-365.5"/>
<text text-anchor="middle" x="116.5" y="-381" font-family="Consolas" font-size="10.00" fill="#000000">l = find_type(type);</text>
</g>
<!-- moduleinit&#45;&gt;moduleft -->
<g id="edge1" class="edge">
<title>moduleinit&#45;&gt;moduleft</title>
<path fill="none" stroke="#006400" d="M185.7584,-438.4551C174.1477,-429.2422 159.8542,-417.9006 147.2734,-407.918"/>
<polygon fill="#006400" stroke="#006400" points="149.3079,-405.0644 139.2988,-401.5904 144.9569,-410.5479 149.3079,-405.0644"/>
</g>
<!-- moduleexec -->
<g id="node3" class="node">
<title>moduleexec</title>
<path fill="#87ceeb" stroke="#87ceeb" d="M215,-365.5C215,-365.5 388,-365.5 388,-365.5 394,-365.5 400,-371.5 400,-377.5 400,-377.5 400,-389.5 400,-389.5 400,-395.5 394,-401.5 388,-401.5 388,-401.5 215,-401.5 215,-401.5 209,-401.5 203,-395.5 203,-389.5 203,-389.5 203,-377.5 203,-377.5 203,-371.5 209,-365.5 215,-365.5"/>
<text text-anchor="middle" x="301.5" y="-381" font-family="Consolas" font-size="10.00" fill="#000000">foreach e in l then e&#45;&gt;init();</text>
</g>
<!-- moduleinit&#45;&gt;moduleexec -->
<g id="edge2" class="edge">
<title>moduleinit&#45;&gt;moduleexec</title>
<path fill="none" stroke="#006400" d="M231.4888,-438.4551C243.2257,-429.2422 257.6746,-417.9006 270.3921,-407.918"/>
<polygon fill="#006400" stroke="#006400" points="272.7483,-410.518 278.4534,-401.5904 268.4262,-405.0117 272.7483,-410.518"/>
</g>
<!-- g3beige -->
<g id="node4" class="node">
<title>g3beige</title>
<path fill="#87ceeb" stroke="#87ceeb" d="M12,-292.5C12,-292.5 179,-292.5 179,-292.5 185,-292.5 191,-298.5 191,-304.5 191,-304.5 191,-316.5 191,-316.5 191,-322.5 185,-328.5 179,-328.5 179,-328.5 12,-328.5 12,-328.5 6,-328.5 0,-322.5 0,-316.5 0,-316.5 0,-304.5 0,-304.5 0,-298.5 6,-292.5 12,-292.5"/>
<text text-anchor="middle" x="95.5" y="-308" font-family="Consolas" font-size="10.00" fill="#000000">ppc_heathrow_register_types()</text>
</g>
<!-- moduleexec&#45;&gt;g3beige -->
<g id="edge3" class="edge">
<title>moduleexec&#45;&gt;g3beige</title>
<path fill="none" stroke="#006400" d="M250.5786,-365.4551C221.9809,-355.3209 186.1146,-342.611 156.0796,-331.9675"/>
<polygon fill="#006400" stroke="#006400" points="157.1443,-328.6316 146.5495,-328.5904 154.8061,-335.2296 157.1443,-328.6316"/>
</g>
<!-- mac99 -->
<g id="node5" class="node">
<title>mac99</title>
<path fill="#87ceeb" stroke="#87ceeb" d="M221,-292.5C221,-292.5 382,-292.5 382,-292.5 388,-292.5 394,-298.5 394,-304.5 394,-304.5 394,-316.5 394,-316.5 394,-322.5 388,-328.5 382,-328.5 382,-328.5 221,-328.5 221,-328.5 215,-328.5 209,-322.5 209,-316.5 209,-316.5 209,-304.5 209,-304.5 209,-298.5 215,-292.5 221,-292.5"/>
<text text-anchor="middle" x="301.5" y="-308" font-family="Consolas" font-size="10.00" fill="#000000">mac_machine_register_types()</text>
</g>
<!-- moduleexec&#45;&gt;mac99 -->
<g id="edge4" class="edge">
<title>moduleexec&#45;&gt;mac99</title>
<path fill="none" stroke="#006400" d="M301.5,-365.4551C301.5,-357.3828 301.5,-347.6764 301.5,-338.6817"/>
<polygon fill="#006400" stroke="#006400" points="305.0001,-338.5903 301.5,-328.5904 298.0001,-338.5904 305.0001,-338.5903"/>
</g>
<!-- prep -->
<g id="node6" class="node">
<title>prep</title>
<path fill="#87ceeb" stroke="#87ceeb" d="M424,-292.5C424,-292.5 621,-292.5 621,-292.5 627,-292.5 633,-298.5 633,-304.5 633,-304.5 633,-316.5 633,-316.5 633,-322.5 627,-328.5 621,-328.5 621,-328.5 424,-328.5 424,-328.5 418,-328.5 412,-322.5 412,-316.5 412,-316.5 412,-304.5 412,-304.5 412,-298.5 418,-292.5 424,-292.5"/>
<text text-anchor="middle" x="522.5" y="-308" font-family="Consolas" font-size="10.00" fill="#000000">prep_machine_init_register_types()</text>
</g>
<!-- moduleexec&#45;&gt;prep -->
<g id="edge5" class="edge">
<title>moduleexec&#45;&gt;prep</title>
<path fill="none" stroke="#006400" d="M356.1292,-365.4551C386.9421,-355.277 425.6205,-342.5009 457.9273,-331.8294"/>
<polygon fill="#006400" stroke="#006400" points="459.3357,-335.0503 467.7333,-328.5904 457.1401,-328.4035 459.3357,-335.0503"/>
</g>
<!-- registerstatic -->
<g id="node7" class="node">
<title>registerstatic</title>
<path fill="#87ceeb" stroke="#87ceeb" d="M239,-219.5C239,-219.5 364,-219.5 364,-219.5 370,-219.5 376,-225.5 376,-231.5 376,-231.5 376,-243.5 376,-243.5 376,-249.5 370,-255.5 364,-255.5 364,-255.5 239,-255.5 239,-255.5 233,-255.5 227,-249.5 227,-243.5 227,-243.5 227,-231.5 227,-231.5 227,-225.5 233,-219.5 239,-219.5"/>
<text text-anchor="middle" x="301.5" y="-235" font-family="Consolas" font-size="10.00" fill="#000000">type_register_static()</text>
</g>
<!-- g3beige&#45;&gt;registerstatic -->
<g id="edge6" class="edge">
<title>g3beige&#45;&gt;registerstatic</title>
<path fill="none" stroke="#006400" d="M146.4214,-292.4551C175.0191,-282.3209 210.8854,-269.611 240.9204,-258.9675"/>
<polygon fill="#006400" stroke="#006400" points="242.1939,-262.2296 250.4505,-255.5904 239.8557,-255.6316 242.1939,-262.2296"/>
</g>
<!-- mac99&#45;&gt;registerstatic -->
<g id="edge7" class="edge">
<title>mac99&#45;&gt;registerstatic</title>
<path fill="none" stroke="#006400" d="M301.5,-292.4551C301.5,-284.3828 301.5,-274.6764 301.5,-265.6817"/>
<polygon fill="#006400" stroke="#006400" points="305.0001,-265.5903 301.5,-255.5904 298.0001,-265.5904 305.0001,-265.5903"/>
</g>
<!-- prep&#45;&gt;registerstatic -->
<g id="edge8" class="edge">
<title>prep&#45;&gt;registerstatic</title>
<path fill="none" stroke="#006400" d="M467.8708,-292.4551C437.0579,-282.277 398.3795,-269.5009 366.0727,-258.8294"/>
<polygon fill="#006400" stroke="#006400" points="366.8599,-255.4035 356.2667,-255.5904 364.6643,-262.0503 366.8599,-255.4035"/>
</g>
<!-- typeregister -->
<g id="node8" class="node">
<title>typeregister</title>
<path fill="#87ceeb" stroke="#87ceeb" d="M260,-146.5C260,-146.5 343,-146.5 343,-146.5 349,-146.5 355,-152.5 355,-158.5 355,-158.5 355,-170.5 355,-170.5 355,-176.5 349,-182.5 343,-182.5 343,-182.5 260,-182.5 260,-182.5 254,-182.5 248,-176.5 248,-170.5 248,-170.5 248,-158.5 248,-158.5 248,-152.5 254,-146.5 260,-146.5"/>
<text text-anchor="middle" x="301.5" y="-162" font-family="Consolas" font-size="10.00" fill="#000000">type_register()</text>
</g>
<!-- registerstatic&#45;&gt;typeregister -->
<g id="edge9" class="edge">
<title>registerstatic&#45;&gt;typeregister</title>
<path fill="none" stroke="#006400" d="M301.5,-219.4551C301.5,-211.3828 301.5,-201.6764 301.5,-192.6817"/>
<polygon fill="#006400" stroke="#006400" points="305.0001,-192.5903 301.5,-182.5904 298.0001,-192.5904 305.0001,-192.5903"/>
</g>
<!-- typeregisterinternal -->
<g id="node9" class="node">
<title>typeregisterinternal</title>
<path fill="#87ceeb" stroke="#87ceeb" d="M233,-73.5C233,-73.5 370,-73.5 370,-73.5 376,-73.5 382,-79.5 382,-85.5 382,-85.5 382,-97.5 382,-97.5 382,-103.5 376,-109.5 370,-109.5 370,-109.5 233,-109.5 233,-109.5 227,-109.5 221,-103.5 221,-97.5 221,-97.5 221,-85.5 221,-85.5 221,-79.5 227,-73.5 233,-73.5"/>
<text text-anchor="middle" x="301.5" y="-89" font-family="Consolas" font-size="10.00" fill="#000000">type_register_internal()</text>
</g>
<!-- typeregister&#45;&gt;typeregisterinternal -->
<g id="edge10" class="edge">
<title>typeregister&#45;&gt;typeregisterinternal</title>
<path fill="none" stroke="#006400" d="M301.5,-146.4551C301.5,-138.3828 301.5,-128.6764 301.5,-119.6817"/>
<polygon fill="#006400" stroke="#006400" points="305.0001,-119.5903 301.5,-109.5904 298.0001,-119.5904 305.0001,-119.5903"/>
</g>
<!-- typenew -->
<g id="node10" class="node">
<title>typenew</title>
<path fill="#87ceeb" stroke="#87ceeb" d="M219,-.5C219,-.5 272,-.5 272,-.5 278,-.5 284,-6.5 284,-12.5 284,-12.5 284,-24.5 284,-24.5 284,-30.5 278,-36.5 272,-36.5 272,-36.5 219,-36.5 219,-36.5 213,-36.5 207,-30.5 207,-24.5 207,-24.5 207,-12.5 207,-12.5 207,-6.5 213,-.5 219,-.5"/>
<text text-anchor="middle" x="245.5" y="-16" font-family="Consolas" font-size="10.00" fill="#000000">type_new()</text>
</g>
<!-- typeregisterinternal&#45;&gt;typenew -->
<g id="edge11" class="edge">
<title>typeregisterinternal&#45;&gt;typenew</title>
<path fill="none" stroke="#006400" d="M287.6573,-73.4551C280.9938,-64.7686 272.8785,-54.1898 265.5541,-44.642"/>
<polygon fill="#006400" stroke="#006400" points="268.2412,-42.3944 259.3775,-36.5904 262.6872,-46.655 268.2412,-42.3944"/>
</g>
<!-- typeadd -->
<g id="node11" class="node">
<title>typeadd</title>
<path fill="#87ceeb" stroke="#87ceeb" d="M314,-.5C314,-.5 403,-.5 403,-.5 409,-.5 415,-6.5 415,-12.5 415,-12.5 415,-24.5 415,-24.5 415,-30.5 409,-36.5 403,-36.5 403,-36.5 314,-36.5 314,-36.5 308,-36.5 302,-30.5 302,-24.5 302,-24.5 302,-12.5 302,-12.5 302,-6.5 308,-.5 314,-.5"/>
<text text-anchor="middle" x="358.5" y="-16" font-family="Consolas" font-size="10.00" fill="#000000">type_table_add()</text>
</g>
<!-- typeregisterinternal&#45;&gt;typeadd -->
<g id="edge12" class="edge">
<title>typeregisterinternal&#45;&gt;typeadd</title>
<path fill="none" stroke="#006400" d="M315.5899,-73.4551C322.3724,-64.7686 330.6326,-54.1898 338.0877,-44.642"/>
<polygon fill="#006400" stroke="#006400" points="340.9789,-46.6263 344.3747,-36.5904 335.4616,-42.3182 340.9789,-46.6263"/>
</g>
</g>
</svg>
